<?xml version="1.0" encoding="UTF-8" standalone="no"?>
<!DOCTYPE svg PUBLIC "-//W3C//DTD SVG 1.1//EN"
 "http://www.w3.org/Graphics/SVG/1.1/DTD/svg11.dtd">
<!-- Generated by graphviz version 2.38.0 (20140413.2041)
 -->
<!-- Title: Tree Pages: 1 -->
<svg width="428pt" height="457pt"
 viewBox="0.00 0.00 428.00 457.00" xmlns="http://www.w3.org/2000/svg" xmlns:xlink="http://www.w3.org/1999/xlink">
<g id="graph0" class="graph" transform="scale(1 1) rotate(0) translate(4 453)">
<title>Tree</title>
<polygon fill="white" stroke="none" points="-4,4 -4,-453 424,-453 424,4 -4,4"/>
<!-- islib -->
<g id="node1" class="node"><title>islib</title>
<path fill="none" stroke="black" d="M248,-449C248,-449 86,-449 86,-449 80,-449 74,-443 74,-437 74,-437 74,-425 74,-425 74,-419 80,-413 86,-413 86,-413 248,-413 248,-413 254,-413 260,-419 260,-425 260,-425 260,-437 260,-437 260,-443 254,-449 248,-449"/>
<text text-anchor="start" x="82" y="-427.3" font-family="Helvetica,sans-Serif" font-size="14.00">Integrate an existing library?</text>
</g>
<!-- otherlang -->
<g id="node2" class="node"><title>otherlang</title>
<path fill="none" stroke="black" d="M150,-377C150,-377 12,-377 12,-377 6,-377 0,-371 0,-365 0,-365 0,-351 0,-351 0,-345 6,-339 12,-339 12,-339 150,-339 150,-339 156,-339 162,-345 162,-351 162,-351 162,-365 162,-365 162,-371 156,-377 150,-377"/>
<text text-anchor="start" x="13" y="-361.8" font-family="Helvetica,sans-Serif" font-size="14.00">Support other scripting</text>
<text text-anchor="start" x="8" y="-346.8" font-family="Helvetica,sans-Serif" font-size="14.00">languages than Python?</text>
</g>
<!-- islib&#45;&gt;otherlang -->
<g id="edge1" class="edge"><title>islib&#45;&gt;otherlang</title>
<path fill="none" stroke="black" d="M146.182,-412.813C135.519,-404.01 122.35,-393.138 110.646,-383.475"/>
<polygon fill="black" stroke="black" points="112.766,-380.687 102.827,-377.02 108.31,-386.085 112.766,-380.687"/>
<text text-anchor="middle" x="105.204" y="-398.206" font-family="Helvetica,sans-Serif" font-size="14.00">Yes</text>
</g>
<!-- pyimpl -->
<g id="node9" class="node"><title>pyimpl</title>
<path fill="none" stroke="black" d="M313.5,-377C313.5,-377 192.5,-377 192.5,-377 186.5,-377 180.5,-371 180.5,-365 180.5,-365 180.5,-351 180.5,-351 180.5,-345 186.5,-339 192.5,-339 192.5,-339 313.5,-339 313.5,-339 319.5,-339 325.5,-345 325.5,-351 325.5,-351 325.5,-365 325.5,-365 325.5,-371 319.5,-377 313.5,-377"/>
<text text-anchor="start" x="188.5" y="-361.8" font-family="Helvetica,sans-Serif" font-size="14.00">Implement in Python.</text>
<text text-anchor="start" x="201.5" y="-346.8" font-family="Helvetica,sans-Serif" font-size="14.00">Is it fast enough?</text>
</g>
<!-- islib&#45;&gt;pyimpl -->
<g id="edge8" class="edge"><title>islib&#45;&gt;pyimpl</title>
<path fill="none" stroke="black" d="M187.818,-412.813C198.481,-404.01 211.65,-393.138 223.354,-383.475"/>
<polygon fill="black" stroke="black" points="225.69,-386.085 231.173,-377.02 221.234,-380.687 225.69,-386.085"/>
<text text-anchor="middle" x="228.796" y="-398.206" font-family="Helvetica,sans-Serif" font-size="14.00">No</text>
</g>
<!-- swig -->
<g id="node3" class="node"><title>swig</title>
<path fill="#e58139" stroke="black" d="M62,-287C62,-287 32,-287 32,-287 26,-287 20,-281 20,-275 20,-275 20,-263 20,-263 20,-257 26,-251 32,-251 32,-251 62,-251 62,-251 68,-251 74,-257 74,-263 74,-263 74,-275 74,-275 74,-281 68,-287 62,-287"/>
<text text-anchor="start" x="28" y="-265.3" font-family="Helvetica,sans-Serif" font-size="14.00">SWIG</text>
</g>
<!-- otherlang&#45;&gt;swig -->
<g id="edge2" class="edge"><title>otherlang&#45;&gt;swig</title>
<path fill="none" stroke="black" d="M73.9552,-338.974C69.1657,-326.718 62.7485,-310.298 57.377,-296.553"/>
<polygon fill="black" stroke="black" points="60.5887,-295.155 53.6888,-287.115 54.0689,-297.703 60.5887,-295.155"/>
<text text-anchor="middle" x="43.6584" y="-306.315" font-family="Helvetica,sans-Serif" font-size="14.00">Yes</text>
</g>
<!-- whichlang -->
<g id="node4" class="node"><title>whichlang</title>
<path fill="none" stroke="black" d="M232.5,-125C232.5,-125 101.5,-125 101.5,-125 95.5,-125 89.5,-119 89.5,-113 89.5,-113 89.5,-101 89.5,-101 89.5,-95 95.5,-89 101.5,-89 101.5,-89 232.5,-89 232.5,-89 238.5,-89 244.5,-95 244.5,-101 244.5,-101 244.5,-113 244.5,-113 244.5,-119 238.5,-125 232.5,-125"/>
<text text-anchor="start" x="97.5" y="-103.3" font-family="Helvetica,sans-Serif" font-size="14.00">The library is written in:</text>
</g>
<!-- otherlang&#45;&gt;whichlang -->
<g id="edge3" class="edge"><title>otherlang&#45;&gt;whichlang</title>
<path fill="none" stroke="black" d="M81.6446,-338.989C83.5584,-303.249 91.1294,-221.585 121,-161 125.981,-150.897 133.364,-141.179 140.764,-132.885"/>
<polygon fill="black" stroke="black" points="143.495,-135.09 147.787,-125.404 138.391,-130.299 143.495,-135.09"/>
<text text-anchor="middle" x="108.769" y="-240.458" font-family="Helvetica,sans-Serif" font-size="14.00">No</text>
</g>
<!-- f2py -->
<g id="node5" class="node"><title>f2py</title>
<path fill="#f45342" stroke="black" d="M60,-44.5C60,-44.5 30,-44.5 30,-44.5 24,-44.5 18,-38.5 18,-32.5 18,-32.5 18,-20.5 18,-20.5 18,-14.5 24,-8.5 30,-8.5 30,-8.5 60,-8.5 60,-8.5 66,-8.5 72,-14.5 72,-20.5 72,-20.5 72,-32.5 72,-32.5 72,-38.5 66,-44.5 60,-44.5"/>
<text text-anchor="middle" x="45" y="-22.8" font-family="Helvetica,sans-Serif" font-size="14.00">f2py</text>
</g>
<!-- whichlang&#45;&gt;f2py -->
<g id="edge4" class="edge"><title>whichlang&#45;&gt;f2py</title>
<path fill="none" stroke="black" d="M138.043,-88.7874C121.225,-78.6331 99.7245,-65.3831 81,-53 79.7622,-52.1814 78.5056,-51.3407 77.2401,-50.4859"/>
<polygon fill="black" stroke="black" points="79.0869,-47.5081 68.8642,-44.7245 75.1198,-53.2755 79.0869,-47.5081"/>
<text text-anchor="middle" x="73.4107" y="-65.6077" font-family="Helvetica,sans-Serif" font-size="14.00">Fortran</text>
</g>
<!-- cython -->
<g id="node6" class="node"><title>cython</title>
<path fill="#b9f442" stroke="black" d="M137.5,-53C137.5,-53 102.5,-53 102.5,-53 96.5,-53 90.5,-47 90.5,-41 90.5,-41 90.5,-12 90.5,-12 90.5,-6 96.5,-0 102.5,-0 102.5,-0 137.5,-0 137.5,-0 143.5,-0 149.5,-6 149.5,-12 149.5,-12 149.5,-41 149.5,-41 149.5,-47 143.5,-53 137.5,-53"/>
<text text-anchor="start" x="98.5" y="-37.8" font-family="Helvetica,sans-Serif" font-size="14.00">Cython</text>
<text text-anchor="start" x="100" y="-22.8" font-family="Helvetica,sans-Serif" font-size="14.00">ctypes</text>
<text text-anchor="start" x="100" y="-7.8" font-family="Helvetica,sans-Serif" font-size="14.00">instant</text>
</g>
<!-- whichlang&#45;&gt;cython -->
<g id="edge5" class="edge"><title>whichlang&#45;&gt;cython</title>
<path fill="none" stroke="black" d="M156.802,-88.9667C152.055,-81.0388 146.229,-71.3079 140.624,-61.9469"/>
<polygon fill="black" stroke="black" points="143.501,-59.9381 135.361,-53.1563 137.495,-63.534 143.501,-59.9381"/>
<text text-anchor="middle" x="130.492" y="-68.8546" font-family="Helvetica,sans-Serif" font-size="14.00">C</text>
</g>
<!-- swig2 -->
<g id="node7" class="node"><title>swig2</title>
<path fill="#e58139" stroke="black" d="M250,-53C250,-53 180,-53 180,-53 174,-53 168,-47 168,-41 168,-41 168,-12 168,-12 168,-6 174,-0 180,-0 180,-0 250,-0 250,-0 256,-0 262,-6 262,-12 262,-12 262,-41 262,-41 262,-47 256,-53 250,-53"/>
<text text-anchor="start" x="193.5" y="-37.8" font-family="Helvetica,sans-Serif" font-size="14.00">Cython</text>
<text text-anchor="start" x="193" y="-22.8" font-family="Helvetica,sans-Serif" font-size="14.00">PyCXX</text>
<text text-anchor="start" x="176" y="-7.8" font-family="Helvetica,sans-Serif" font-size="14.00">boost.python</text>
</g>
<!-- whichlang&#45;&gt;swig2 -->
<g id="edge6" class="edge"><title>whichlang&#45;&gt;swig2</title>
<path fill="none" stroke="black" d="M177.415,-88.9667C182.263,-81.0388 188.213,-71.3079 193.937,-61.9469"/>
<polygon fill="black" stroke="black" points="197.081,-63.5137 199.312,-53.1563 191.109,-59.8619 197.081,-63.5137"/>
<text text-anchor="middle" x="170.145" y="-68.8024" font-family="Helvetica,sans-Serif" font-size="14.00">C++</text>
</g>
<!-- swig3 -->
<g id="node8" class="node"><title>swig3</title>
<path fill="#e58139" stroke="black" d="M322,-44.5C322,-44.5 292,-44.5 292,-44.5 286,-44.5 280,-38.5 280,-32.5 280,-32.5 280,-20.5 280,-20.5 280,-14.5 286,-8.5 292,-8.5 292,-8.5 322,-8.5 322,-8.5 328,-8.5 334,-14.5 334,-20.5 334,-20.5 334,-32.5 334,-32.5 334,-38.5 328,-44.5 322,-44.5"/>
<text text-anchor="start" x="288" y="-22.8" font-family="Helvetica,sans-Serif" font-size="14.00">SWIG</text>
</g>
<!-- whichlang&#45;&gt;swig3 -->
<g id="edge7" class="edge"><title>whichlang&#45;&gt;swig3</title>
<path fill="none" stroke="black" d="M203.799,-88.8644C224.019,-79.0496 249.323,-66.1062 271,-53 272.442,-52.1282 273.902,-51.2179 275.366,-50.2822"/>
<polygon fill="black" stroke="black" points="277.316,-53.1887 283.704,-44.7358 273.439,-47.3605 277.316,-53.1887"/>
<text text-anchor="middle" x="311.305" y="-69.9867" font-family="Helvetica,sans-Serif" font-size="14.00">C/C++ (large project)</text>
</g>
<!-- numpyimpl -->
<g id="node10" class="node"><title>numpyimpl</title>
<path fill="#4286f4" stroke="black" d="M303.5,-303C303.5,-303 160.5,-303 160.5,-303 154.5,-303 148.5,-297 148.5,-291 148.5,-291 148.5,-247 148.5,-247 148.5,-241 154.5,-235 160.5,-235 160.5,-235 303.5,-235 303.5,-235 309.5,-235 315.5,-241 315.5,-247 315.5,-247 315.5,-291 315.5,-291 315.5,-297 309.5,-303 303.5,-303"/>
<text text-anchor="start" x="156.5" y="-287.8" font-family="Helvetica,sans-Serif" font-size="14.00">Numpy with vectorization</text>
<text text-anchor="start" x="210.5" y="-272.8" font-family="Helvetica,sans-Serif" font-size="14.00">Cython</text>
<text text-anchor="start" x="216" y="-257.8" font-family="Helvetica,sans-Serif" font-size="14.00">PyPy</text>
<text text-anchor="start" x="209.5" y="-242.8" font-family="Helvetica,sans-Serif" font-size="14.00">Numba</text>
</g>
<!-- pyimpl&#45;&gt;numpyimpl -->
<g id="edge9" class="edge"><title>pyimpl&#45;&gt;numpyimpl</title>
<path fill="none" stroke="black" d="M248.649,-338.974C246.814,-331.371 244.592,-322.166 242.377,-312.99"/>
<polygon fill="black" stroke="black" points="245.744,-312.023 239.995,-303.124 238.94,-313.666 245.744,-312.023"/>
<text text-anchor="middle" x="226.959" y="-320.756" font-family="Helvetica,sans-Serif" font-size="14.00">No</text>
</g>
<!-- pysmile -->
<g id="node11" class="node"><title>pysmile</title>
<path fill="#39e581" stroke="black" d="M408,-287C408,-287 346,-287 346,-287 340,-287 334,-281 334,-275 334,-275 334,-263 334,-263 334,-257 340,-251 346,-251 346,-251 408,-251 408,-251 414,-251 420,-257 420,-263 420,-263 420,-275 420,-275 420,-281 414,-287 408,-287"/>
<text text-anchor="start" x="342" y="-265.3" font-family="Helvetica,sans-Serif" font-size="14.00">Use Python</text>
</g>
<!-- pyimpl&#45;&gt;pysmile -->
<g id="edge10" class="edge"><title>pyimpl&#45;&gt;pysmile</title>
<path fill="none" stroke="black" d="M278.693,-338.974C297.687,-325.647 323.699,-307.396 344.196,-293.016"/>
<polygon fill="black" stroke="black" points="346.43,-295.724 352.606,-287.115 342.409,-289.994 346.43,-295.724"/>
<text text-anchor="middle" x="348.288" y="-308.04" font-family="Helvetica,sans-Serif" font-size="14.00">Yes</text>
</g>
<!-- cimpl -->
<g id="node12" class="node"><title>cimpl</title>
<path fill="none" stroke="black" d="M321.5,-199C321.5,-199 142.5,-199 142.5,-199 136.5,-199 130.5,-193 130.5,-187 130.5,-187 130.5,-173 130.5,-173 130.5,-167 136.5,-161 142.5,-161 142.5,-161 321.5,-161 321.5,-161 327.5,-161 333.5,-167 333.5,-173 333.5,-173 333.5,-187 333.5,-187 333.5,-193 327.5,-199 321.5,-199"/>
<text text-anchor="start" x="190.5" y="-183.8" font-family="Helvetica,sans-Serif" font-size="14.00">Still too slow?</text>
<text text-anchor="start" x="138.5" y="-168.8" font-family="Helvetica,sans-Serif" font-size="14.00">Reimplement in C/C++/Fortran</text>
</g>
<!-- numpyimpl&#45;&gt;cimpl -->
<g id="edge11" class="edge"><title>numpyimpl&#45;&gt;cimpl</title>
<path fill="none" stroke="black" d="M232,-234.612C232,-226.216 232,-217.288 232,-209.175"/>
<polygon fill="black" stroke="black" points="235.5,-209.092 232,-199.092 228.5,-209.093 235.5,-209.092"/>
</g>
<!-- cimpl&#45;&gt;whichlang -->
<g id="edge12" class="edge"><title>cimpl&#45;&gt;whichlang</title>
<path fill="none" stroke="black" d="M215.261,-160.716C207.385,-152.113 197.88,-141.731 189.396,-132.463"/>
<polygon fill="black" stroke="black" points="191.901,-130.016 182.567,-125.003 186.738,-134.743 191.901,-130.016"/>
</g>
</g>
</svg>
